{
	"asset":{
		"generator":"Khronos glTF Blender I/O v4.0.44",
		"version":"2.0"
	},
	"scene":0,
	"scenes":[
		{
			"name":"Scene",
			"nodes":[
				0,
				1,
				2,
				3,
				4,
				5,
				6,
				7,
				8,
				9
			]
		}
	],
	"nodes":[
		{
			"mesh":0,
			"name":"3MFMeshParent_30",
			"rotation":[
				-0.70710688829422,
				0,
				0,
				0.7071066498756409
			]
		},
		{
			"mesh":1,
			"name":"3MFMeshParent_31",
			"rotation":[
				-0.70710688829422,
				0,
				0,
				0.7071066498756409
			]
		},
		{
			"mesh":2,
			"name":"3MFMeshParent_32",
			"rotation":[
				-0.70710688829422,
				0,
				0,
				0.7071066498756409
			]
		},
		{
			"mesh":3,
			"name":"3MFMeshParent_33",
			"rotation":[
				-0.70710688829422,
				0,
				0,
				0.7071066498756409
			]
		},
		{
			"mesh":4,
			"name":"3MFMeshParent_34",
			"rotation":[
				-0.70710688829422,
				0,
				0,
				0.7071066498756409
			]
		},
		{
			"mesh":5,
			"name":"3MFMeshParent_35",
			"rotation":[
				-0.70710688829422,
				0,
				0,
				0.7071066498756409
			]
		},
		{
			"mesh":6,
			"name":"3MFMeshParent_36",
			"rotation":[
				-0.70710688829422,
				0,
				0,
				0.7071066498756409
			]
		},
		{
			"mesh":7,
			"name":"3MFMeshParent_37",
			"rotation":[
				-0.70710688829422,
				0,
				0,
				0.7071066498756409
			]
		},
		{
			"mesh":8,
			"name":"3MFMeshParent_38",
			"rotation":[
				-0.70710688829422,
				0,
				0,
				0.7071066498756409
			]
		},
		{
			"mesh":9,
			"name":"3MFMeshParent_39",
			"rotation":[
				-0.70710688829422,
				0,
				0,
				0.7071066498756409
			]
		}
	],
	"materials":[
		{
			"doubleSided":true,
			"name":"Material_0.005",
			"pbrMetallicRoughness":{}
		}
	],
	"meshes":[
		{
			"name":"Mesh_0.005",
			"primitives":[
				{
					"attributes":{
						"COLOR_0":0,
						"POSITION":1,
						"NORMAL":2
					},
					"indices":3,
					"material":0
				}
			]
		},
		{
			"name":"Mesh_1.005",
			"primitives":[
				{
					"attributes":{
						"COLOR_0":4,
						"POSITION":5,
						"NORMAL":6
					},
					"indices":7,
					"material":0
				}
			]
		},
		{
			"name":"Mesh_2.005",
			"primitives":[
				{
					"attributes":{
						"COLOR_0":8,
						"POSITION":9,
						"NORMAL":10
					},
					"indices":11,
					"material":0
				}
			]
		},
		{
			"name":"Mesh_3.005",
			"primitives":[
				{
					"attributes":{
						"COLOR_0":12,
						"POSITION":13,
						"NORMAL":14
					},
					"indices":15,
					"material":0
				}
			]
		},
		{
			"name":"Mesh_4.005",
			"primitives":[
				{
					"attributes":{
						"COLOR_0":16,
						"POSITION":17,
						"NORMAL":18
					},
					"indices":11,
					"material":0
				}
			]
		},
		{
			"name":"Mesh_5.005",
			"primitives":[
				{
					"attributes":{
						"COLOR_0":19,
						"POSITION":20,
						"NORMAL":21
					},
					"indices":15,
					"material":0
				}
			]
		},
		{
			"name":"Mesh_6.005",
			"primitives":[
				{
					"attributes":{
						"COLOR_0":22,
						"POSITION":23,
						"NORMAL":24
					},
					"indices":11,
					"material":0
				}
			]
		},
		{
			"name":"Mesh_7.005",
			"primitives":[
				{
					"attributes":{
						"COLOR_0":25,
						"POSITION":26,
						"NORMAL":27
					},
					"indices":15,
					"material":0
				}
			]
		},
		{
			"name":"Mesh_8.004",
			"primitives":[
				{
					"attributes":{
						"COLOR_0":28,
						"POSITION":29,
						"NORMAL":30
					},
					"indices":31,
					"material":0
				}
			]
		},
		{
			"name":"Mesh_9.004",
			"primitives":[
				{
					"attributes":{
						"COLOR_0":32,
						"POSITION":33,
						"NORMAL":34
					},
					"indices":31,
					"material":0
				}
			]
		}
	],
	"accessors":[
		{
			"bufferView":0,
			"componentType":5123,
			"count":1188,
			"normalized":true,
			"type":"VEC4"
		},
		{
			"bufferView":1,
			"componentType":5126,
			"count":1188,
			"max":[
				57.59979248046875,
				-25.185686111450195,
				5
			],
			"min":[
				46.13539505004883,
				-27.881790161132812,
				0
			],
			"type":"VEC3"
		},
		{
			"bufferView":2,
			"componentType":5126,
			"count":1188,
			"type":"VEC3"
		},
		{
			"bufferView":3,
			"componentType":5123,
			"count":1188,
			"type":"SCALAR"
		},
		{
			"bufferView":4,
			"componentType":5123,
			"count":84,
			"normalized":true,
			"type":"VEC4"
		},
		{
			"bufferView":5,
			"componentType":5126,
			"count":84,
			"max":[
				57.77970886230469,
				-5.442479133605957,
				4.5
			],
			"min":[
				0.4974159896373749,
				-24.72795867919922,
				0
			],
			"type":"VEC3"
		},
		{
			"bufferView":6,
			"componentType":5126,
			"count":84,
			"type":"VEC3"
		},
		{
			"bufferView":7,
			"componentType":5123,
			"count":84,
			"type":"SCALAR"
		},
		{
			"bufferView":8,
			"componentType":5123,
			"count":1176,
			"normalized":true,
			"type":"VEC4"
		},
		{
			"bufferView":9,
			"componentType":5126,
			"count":1176,
			"max":[
				15.610416412353516,
				-49.88983154296875,
				5
			],
			"min":[
				4.146020889282227,
				-52.5859375,
				0
			],
			"type":"VEC3"
		},
		{
			"bufferView":10,
			"componentType":5126,
			"count":1176,
			"type":"VEC3"
		},
		{
			"bufferView":11,
			"componentType":5123,
			"count":1176,
			"type":"SCALAR"
		},
		{
			"bufferView":12,
			"componentType":5123,
			"count":36,
			"normalized":true,
			"type":"VEC4"
		},
		{
			"bufferView":13,
			"componentType":5126,
			"count":36,
			"max":[
				55.68949890136719,
				-28.188709259033203,
				5
			],
			"min":[
				48.04833221435547,
				-49.58556365966797,
				0
			],
			"type":"VEC3"
		},
		{
			"bufferView":14,
			"componentType":5126,
			"count":36,
			"type":"VEC3"
		},
		{
			"bufferView":15,
			"componentType":5123,
			"count":36,
			"type":"SCALAR"
		},
		{
			"bufferView":16,
			"componentType":5123,
			"count":1176,
			"normalized":true,
			"type":"VEC4"
		},
		{
			"bufferView":17,
			"componentType":5126,
			"count":1176,
			"max":[
				15.610416412353516,
				-25.185686111450195,
				5
			],
			"min":[
				4.146020889282227,
				-27.881790161132812,
				0
			],
			"type":"VEC3"
		},
		{
			"bufferView":18,
			"componentType":5126,
			"count":1176,
			"type":"VEC3"
		},
		{
			"bufferView":19,
			"componentType":5123,
			"count":36,
			"normalized":true,
			"type":"VEC4"
		},
		{
			"bufferView":20,
			"componentType":5126,
			"count":36,
			"max":[
				13.697479248046875,
				-28.18606185913086,
				5
			],
			"min":[
				6.056312084197998,
				-49.582916259765625,
				0
			],
			"type":"VEC3"
		},
		{
			"bufferView":21,
			"componentType":5126,
			"count":36,
			"type":"VEC3"
		},
		{
			"bufferView":22,
			"componentType":5123,
			"count":1176,
			"normalized":true,
			"type":"VEC4"
		},
		{
			"bufferView":23,
			"componentType":5126,
			"count":1176,
			"max":[
				57.602439880371094,
				-49.88983154296875,
				5
			],
			"min":[
				46.13804244995117,
				-52.5859375,
				0
			],
			"type":"VEC3"
		},
		{
			"bufferView":24,
			"componentType":5126,
			"count":1176,
			"type":"VEC3"
		},
		{
			"bufferView":25,
			"componentType":5123,
			"count":36,
			"normalized":true,
			"type":"VEC4"
		},
		{
			"bufferView":26,
			"componentType":5126,
			"count":36,
			"max":[
				61.49974822998047,
				-53.31883239746094,
				5
			],
			"min":[
				0,
				-58.536415100097656,
				0
			],
			"type":"VEC3"
		},
		{
			"bufferView":27,
			"componentType":5126,
			"count":36,
			"type":"VEC3"
		},
		{
			"bufferView":28,
			"componentType":5123,
			"count":60,
			"normalized":true,
			"type":"VEC4"
		},
		{
			"bufferView":29,
			"componentType":5126,
			"count":60,
			"max":[
				47.29426956176758,
				0,
				5
			],
			"min":[
				0.4974159896373749,
				-20.48668670654297,
				0
			],
			"type":"VEC3"
		},
		{
			"bufferView":30,
			"componentType":5126,
			"count":60,
			"type":"VEC3"
		},
		{
			"bufferView":31,
			"componentType":5123,
			"count":60,
			"type":"SCALAR"
		},
		{
			"bufferView":32,
			"componentType":5123,
			"count":60,
			"normalized":true,
			"type":"VEC4"
		},
		{
			"bufferView":33,
			"componentType":5126,
			"count":60,
			"max":[
				60.8250617980957,
				0,
				4
			],
			"min":[
				11.736916542053223,
				-24.725311279296875,
				0
			],
			"type":"VEC3"
		},
		{
			"bufferView":34,
			"componentType":5126,
			"count":60,
			"type":"VEC3"
		}
	],
	"bufferViews":[
		{
			"buffer":0,
			"byteLength":9504,
			"byteOffset":0,
			"target":34962
		},
		{
			"buffer":0,
			"byteLength":14256,
			"byteOffset":9504,
			"target":34962
		},
		{
			"buffer":0,
			"byteLength":14256,
			"byteOffset":23760,
			"target":34962
		},
		{
			"buffer":0,
			"byteLength":2376,
			"byteOffset":38016,
			"target":34963
		},
		{
			"buffer":0,
			"byteLength":672,
			"byteOffset":40392,
			"target":34962
		},
		{
			"buffer":0,
			"byteLength":1008,
			"byteOffset":41064,
			"target":34962
		},
		{
			"buffer":0,
			"byteLength":1008,
			"byteOffset":42072,
			"target":34962
		},
		{
			"buffer":0,
			"byteLength":168,
			"byteOffset":43080,
			"target":34963
		},
		{
			"buffer":0,
			"byteLength":9408,
			"byteOffset":43248,
			"target":34962
		},
		{
			"buffer":0,
			"byteLength":14112,
			"byteOffset":52656,
			"target":34962
		},
		{
			"buffer":0,
			"byteLength":14112,
			"byteOffset":66768,
			"target":34962
		},
		{
			"buffer":0,
			"byteLength":2352,
			"byteOffset":80880,
			"target":34963
		},
		{
			"buffer":0,
			"byteLength":288,
			"byteOffset":83232,
			"target":34962
		},
		{
			"buffer":0,
			"byteLength":432,
			"byteOffset":83520,
			"target":34962
		},
		{
			"buffer":0,
			"byteLength":432,
			"byteOffset":83952,
			"target":34962
		},
		{
			"buffer":0,
			"byteLength":72,
			"byteOffset":84384,
			"target":34963
		},
		{
			"buffer":0,
			"byteLength":9408,
			"byteOffset":84456,
			"target":34962
		},
		{
			"buffer":0,
			"byteLength":14112,
			"byteOffset":93864,
			"target":34962
		},
		{
			"buffer":0,
			"byteLength":14112,
			"byteOffset":107976,
			"target":34962
		},
		{
			"buffer":0,
			"byteLength":288,
			"byteOffset":122088,
			"target":34962
		},
		{
			"buffer":0,
			"byteLength":432,
			"byteOffset":122376,
			"target":34962
		},
		{
			"buffer":0,
			"byteLength":432,
			"byteOffset":122808,
			"target":34962
		},
		{
			"buffer":0,
			"byteLength":9408,
			"byteOffset":123240,
			"target":34962
		},
		{
			"buffer":0,
			"byteLength":14112,
			"byteOffset":132648,
			"target":34962
		},
		{
			"buffer":0,
			"byteLength":14112,
			"byteOffset":146760,
			"target":34962
		},
		{
			"buffer":0,
			"byteLength":288,
			"byteOffset":160872,
			"target":34962
		},
		{
			"buffer":0,
			"byteLength":432,
			"byteOffset":161160,
			"target":34962
		},
		{
			"buffer":0,
			"byteLength":432,
			"byteOffset":161592,
			"target":34962
		},
		{
			"buffer":0,
			"byteLength":480,
			"byteOffset":162024,
			"target":34962
		},
		{
			"buffer":0,
			"byteLength":720,
			"byteOffset":162504,
			"target":34962
		},
		{
			"buffer":0,
			"byteLength":720,
			"byteOffset":163224,
			"target":34962
		},
		{
			"buffer":0,
			"byteLength":120,
			"byteOffset":163944,
			"target":34963
		},
		{
			"buffer":0,
			"byteLength":480,
			"byteOffset":164064,
			"target":34962
		},
		{
			"buffer":0,
			"byteLength":720,
			"byteOffset":164544,
			"target":34962
		},
		{
			"buffer":0,
			"byteLength":720,
			"byteOffset":165264,
			"target":34962
		}
	],
	"buffers":[
		{
			"byteLength":165984,
			"uri":"ar3.bin"
		}
	]
}
