{
	"asset":{
		"generator":"Khronos glTF Blender I/O v4.0.44",
		"version":"2.0"
	},
	"scene":0,
	"scenes":[
		{
			"name":"Scene",
			"nodes":[
				0,
				1,
				2,
				3,
				4,
				5,
				6,
				7
			]
		}
	],
	"nodes":[
		{
			"mesh":0,
			"name":"3MFMeshParent_22",
			"rotation":[
				-0.70710688829422,
				0,
				0,
				0.7071066498756409
			]
		},
		{
			"mesh":1,
			"name":"3MFMeshParent_23",
			"rotation":[
				-0.70710688829422,
				0,
				0,
				0.7071066498756409
			]
		},
		{
			"mesh":2,
			"name":"3MFMeshParent_24",
			"rotation":[
				-0.70710688829422,
				0,
				0,
				0.7071066498756409
			]
		},
		{
			"mesh":3,
			"name":"3MFMeshParent_25",
			"rotation":[
				-0.70710688829422,
				0,
				0,
				0.7071066498756409
			]
		},
		{
			"mesh":4,
			"name":"3MFMeshParent_26",
			"rotation":[
				-0.70710688829422,
				0,
				0,
				0.7071066498756409
			]
		},
		{
			"mesh":5,
			"name":"3MFMeshParent_27",
			"rotation":[
				-0.70710688829422,
				0,
				0,
				0.7071066498756409
			]
		},
		{
			"mesh":6,
			"name":"3MFMeshParent_28",
			"rotation":[
				-0.70710688829422,
				0,
				0,
				0.7071066498756409
			]
		},
		{
			"mesh":7,
			"name":"3MFMeshParent_29",
			"rotation":[
				-0.70710688829422,
				0,
				0,
				0.7071066498756409
			]
		}
	],
	"materials":[
		{
			"doubleSided":true,
			"name":"Material_0.006",
			"pbrMetallicRoughness":{}
		}
	],
	"meshes":[
		{
			"name":"Mesh_0.006",
			"primitives":[
				{
					"attributes":{
						"COLOR_0":0,
						"POSITION":1,
						"NORMAL":2
					},
					"indices":3,
					"material":0
				}
			]
		},
		{
			"name":"Mesh_1.006",
			"primitives":[
				{
					"attributes":{
						"COLOR_0":4,
						"POSITION":5,
						"NORMAL":6
					},
					"indices":3,
					"material":0
				}
			]
		},
		{
			"name":"Mesh_2.006",
			"primitives":[
				{
					"attributes":{
						"COLOR_0":7,
						"POSITION":8,
						"NORMAL":9
					},
					"indices":3,
					"material":0
				}
			]
		},
		{
			"name":"Mesh_3.006",
			"primitives":[
				{
					"attributes":{
						"COLOR_0":10,
						"POSITION":11,
						"NORMAL":12
					},
					"indices":3,
					"material":0
				}
			]
		},
		{
			"name":"Mesh_4.006",
			"primitives":[
				{
					"attributes":{
						"COLOR_0":13,
						"POSITION":14,
						"NORMAL":15
					},
					"indices":3,
					"material":0
				}
			]
		},
		{
			"name":"Mesh_5.006",
			"primitives":[
				{
					"attributes":{
						"COLOR_0":16,
						"POSITION":17,
						"NORMAL":18
					},
					"indices":19,
					"material":0
				}
			]
		},
		{
			"name":"Mesh_6.006",
			"primitives":[
				{
					"attributes":{
						"COLOR_0":20,
						"POSITION":21,
						"NORMAL":22
					},
					"indices":23,
					"material":0
				}
			]
		},
		{
			"name":"Mesh_7.006",
			"primitives":[
				{
					"attributes":{
						"COLOR_0":24,
						"POSITION":25,
						"NORMAL":26
					},
					"indices":27,
					"material":0
				}
			]
		}
	],
	"accessors":[
		{
			"bufferView":0,
			"componentType":5123,
			"count":492,
			"normalized":true,
			"type":"VEC4"
		},
		{
			"bufferView":1,
			"componentType":5126,
			"count":492,
			"max":[
				85.59508514404297,
				90,
				3
			],
			"min":[
				0,
				9.270509719848633,
				0
			],
			"type":"VEC3"
		},
		{
			"bufferView":2,
			"componentType":5126,
			"count":492,
			"type":"VEC3"
		},
		{
			"bufferView":3,
			"componentType":5123,
			"count":492,
			"type":"SCALAR"
		},
		{
			"bufferView":4,
			"componentType":5123,
			"count":492,
			"normalized":true,
			"type":"VEC4"
		},
		{
			"bufferView":5,
			"componentType":5126,
			"count":492,
			"max":[
				89.9928970336914,
				27.8115291595459,
				2
			],
			"min":[
				17.63355827331543,
				-72.81153106689453,
				0
			],
			"type":"VEC3"
		},
		{
			"bufferView":6,
			"componentType":5126,
			"count":492,
			"type":"VEC3"
		},
		{
			"bufferView":7,
			"componentType":5123,
			"count":492,
			"normalized":true,
			"type":"VEC4"
		},
		{
			"bufferView":8,
			"componentType":5126,
			"count":492,
			"max":[
				52.900672912597656,
				-24.270509719848633,
				3
			],
			"min":[
				-52.900672912597656,
				-89.9715805053711,
				0
			],
			"type":"VEC3"
		},
		{
			"bufferView":9,
			"componentType":5126,
			"count":492,
			"type":"VEC3"
		},
		{
			"bufferView":10,
			"componentType":5123,
			"count":492,
			"normalized":true,
			"type":"VEC4"
		},
		{
			"bufferView":11,
			"componentType":5126,
			"count":492,
			"max":[
				-17.63355827331543,
				27.8115291595459,
				2
			],
			"min":[
				-89.9928970336914,
				-72.81153106689453,
				0
			],
			"type":"VEC3"
		},
		{
			"bufferView":12,
			"componentType":5126,
			"count":492,
			"type":"VEC3"
		},
		{
			"bufferView":13,
			"componentType":5123,
			"count":492,
			"normalized":true,
			"type":"VEC4"
		},
		{
			"bufferView":14,
			"componentType":5126,
			"count":492,
			"max":[
				0,
				90,
				4
			],
			"min":[
				-85.59508514404297,
				9.270509719848633,
				0
			],
			"type":"VEC3"
		},
		{
			"bufferView":15,
			"componentType":5126,
			"count":492,
			"type":"VEC3"
		},
		{
			"bufferView":16,
			"componentType":5123,
			"count":84,
			"normalized":true,
			"type":"VEC4"
		},
		{
			"bufferView":17,
			"componentType":5126,
			"count":84,
			"max":[
				14.47352123260498,
				100,
				9
			],
			"min":[
				-14.47352123260498,
				70,
				6
			],
			"type":"VEC3"
		},
		{
			"bufferView":18,
			"componentType":5126,
			"count":84,
			"type":"VEC3"
		},
		{
			"bufferView":19,
			"componentType":5123,
			"count":84,
			"type":"SCALAR"
		},
		{
			"bufferView":20,
			"componentType":5123,
			"count":840,
			"normalized":true,
			"type":"VEC4"
		},
		{
			"bufferView":21,
			"componentType":5126,
			"count":840,
			"max":[
				29.97063636779785,
				29.992658615112305,
				6
			],
			"min":[
				-30,
				-29.992658615112305,
				0
			],
			"type":"VEC3"
		},
		{
			"bufferView":22,
			"componentType":5126,
			"count":840,
			"type":"VEC3"
		},
		{
			"bufferView":23,
			"componentType":5123,
			"count":840,
			"type":"SCALAR"
		},
		{
			"bufferView":24,
			"componentType":5123,
			"count":3036,
			"normalized":true,
			"type":"VEC4"
		},
		{
			"bufferView":25,
			"componentType":5126,
			"count":3036,
			"max":[
				100,
				99.9708023071289,
				6
			],
			"min":[
				-100,
				-99.9708023071289,
				0
			],
			"type":"VEC3"
		},
		{
			"bufferView":26,
			"componentType":5126,
			"count":3036,
			"type":"VEC3"
		},
		{
			"bufferView":27,
			"componentType":5123,
			"count":3036,
			"type":"SCALAR"
		}
	],
	"bufferViews":[
		{
			"buffer":0,
			"byteLength":3936,
			"byteOffset":0,
			"target":34962
		},
		{
			"buffer":0,
			"byteLength":5904,
			"byteOffset":3936,
			"target":34962
		},
		{
			"buffer":0,
			"byteLength":5904,
			"byteOffset":9840,
			"target":34962
		},
		{
			"buffer":0,
			"byteLength":984,
			"byteOffset":15744,
			"target":34963
		},
		{
			"buffer":0,
			"byteLength":3936,
			"byteOffset":16728,
			"target":34962
		},
		{
			"buffer":0,
			"byteLength":5904,
			"byteOffset":20664,
			"target":34962
		},
		{
			"buffer":0,
			"byteLength":5904,
			"byteOffset":26568,
			"target":34962
		},
		{
			"buffer":0,
			"byteLength":3936,
			"byteOffset":32472,
			"target":34962
		},
		{
			"buffer":0,
			"byteLength":5904,
			"byteOffset":36408,
			"target":34962
		},
		{
			"buffer":0,
			"byteLength":5904,
			"byteOffset":42312,
			"target":34962
		},
		{
			"buffer":0,
			"byteLength":3936,
			"byteOffset":48216,
			"target":34962
		},
		{
			"buffer":0,
			"byteLength":5904,
			"byteOffset":52152,
			"target":34962
		},
		{
			"buffer":0,
			"byteLength":5904,
			"byteOffset":58056,
			"target":34962
		},
		{
			"buffer":0,
			"byteLength":3936,
			"byteOffset":63960,
			"target":34962
		},
		{
			"buffer":0,
			"byteLength":5904,
			"byteOffset":67896,
			"target":34962
		},
		{
			"buffer":0,
			"byteLength":5904,
			"byteOffset":73800,
			"target":34962
		},
		{
			"buffer":0,
			"byteLength":672,
			"byteOffset":79704,
			"target":34962
		},
		{
			"buffer":0,
			"byteLength":1008,
			"byteOffset":80376,
			"target":34962
		},
		{
			"buffer":0,
			"byteLength":1008,
			"byteOffset":81384,
			"target":34962
		},
		{
			"buffer":0,
			"byteLength":168,
			"byteOffset":82392,
			"target":34963
		},
		{
			"buffer":0,
			"byteLength":6720,
			"byteOffset":82560,
			"target":34962
		},
		{
			"buffer":0,
			"byteLength":10080,
			"byteOffset":89280,
			"target":34962
		},
		{
			"buffer":0,
			"byteLength":10080,
			"byteOffset":99360,
			"target":34962
		},
		{
			"buffer":0,
			"byteLength":1680,
			"byteOffset":109440,
			"target":34963
		},
		{
			"buffer":0,
			"byteLength":24288,
			"byteOffset":111120,
			"target":34962
		},
		{
			"buffer":0,
			"byteLength":36432,
			"byteOffset":135408,
			"target":34962
		},
		{
			"buffer":0,
			"byteLength":36432,
			"byteOffset":171840,
			"target":34962
		},
		{
			"buffer":0,
			"byteLength":6072,
			"byteOffset":208272,
			"target":34963
		}
	],
	"buffers":[
		{
			"byteLength":214344,
			"uri":"ar5.bin"
		}
	]
}
